<svg width="21" height="21" viewBox="0 0 21 21" fill="none" xmlns="http://www.w3.org/2000/svg">
<path fill-rule="evenodd" clip-rule="evenodd" d="M16.799 9.25034C16.799 11.2527 16.0036 13.1731 14.5877 14.589C13.1718 16.0049 11.2514 16.8003 9.24901 16.8003C7.24662 16.8003 5.32625 16.0049 3.91035 14.589C2.49445 13.1731 1.69901 11.2527 1.69901 9.25034C1.69901 7.24795 2.49445 5.32758 3.91035 3.91168C5.32625 2.49578 7.24662 1.70034 9.24901 1.70034C11.2514 1.70034 13.1718 2.49578 14.5877 3.91168C16.0036 5.32758 16.799 7.24795 16.799 9.25034ZM14.881 15.9473C13.1445 17.4073 10.9089 18.1358 8.64558 17.9791C6.38231 17.8224 4.26838 16.7927 2.74969 15.1073C1.23101 13.4219 0.4263 11.2126 0.505314 8.94525C0.584328 6.67794 1.54089 4.52994 3.17321 2.95436C4.80554 1.37877 6.98602 0.49878 9.25472 0.500001C11.5234 0.501223 13.7029 1.38356 15.3336 2.96091C16.9642 4.53825 17.9184 6.68727 17.995 8.95467C18.0716 11.2221 17.2645 13.4306 15.744 15.1143L20.499 19.6703L19.633 20.5003L14.881 15.9473Z" fill="#221D1D"/>
</svg>
